<?xml version="1.0" encoding="utf-8"?>
<!-- Generator: Adobe Illustrator 22.1.0, SVG Export Plug-In . SVG Version: 6.00 Build 0)  -->
<svg version="1.1" id="Layer_1" xmlns="http://www.w3.org/2000/svg" xmlns:xlink="http://www.w3.org/1999/xlink" x="0px" y="0px"
	 viewBox="0 0 525.7 75.4" style="enable-background:new 0 0 525.7 75.4;" xml:space="preserve">
<style type="text/css">
	.st0{fill:#717272;}
	.st1{fill:#BB0000;}
</style>
<g>
	<g>
		<path class="st0" d="M81.4,62.1c0-4.8,3.5-8,7.9-8c2.7,0,4.6,1.3,5.9,3.1l-1.6,0.9c-0.9-1.3-2.5-2.2-4.3-2.2c-3.4,0-6,2.6-6,6.3
			c0,3.7,2.6,6.3,6,6.3c1.8,0,3.4-1,4.3-2.2l1.6,0.9c-1.3,1.8-3.2,3.1-5.9,3.1C84.9,70.1,81.4,66.8,81.4,62.1z"/>
		<path class="st0" d="M96.5,62.1c0-4.6,3.1-8,7.7-8s7.7,3.4,7.7,8s-3.1,8-7.7,8S96.5,66.6,96.5,62.1z M109.8,62.1
			c0-3.6-2.2-6.3-5.7-6.3s-5.7,2.7-5.7,6.3s2.2,6.3,5.7,6.3C107.6,68.3,109.8,65.7,109.8,62.1z"/>
		<path class="st0" d="M114,69.8V54.3h1.9V68h7.2v1.7H114V69.8z"/>
		<path class="st0" d="M124.8,69.8V54.3h1.9V68h7.2v1.7h-9.1V69.8z"/>
		<path class="st0" d="M135.9,69.8V54.3H146V56h-8.2v5h8v1.7h-8V68h8.2v1.7L135.9,69.8L135.9,69.8z"/>
		<path class="st0" d="M147.9,62.1c0-4.8,3.5-8,7.9-8c2.8,0,4.7,1.2,6,2.9l-1.5,1c-1-1.3-2.6-2.1-4.5-2.1c-3.4,0-6,2.6-6,6.3
			c0,3.7,2.6,6.3,6,6.3c1.9,0,3.4-0.9,4.2-1.7v-3.1h-5.3V62h7.2v5.4c-1.4,1.6-3.5,2.7-6.1,2.7C151.5,70.1,147.9,66.9,147.9,62.1z"/>
		<path class="st0" d="M164.5,69.8V54.3h10.1V56h-8.2v5h8v1.7h-8V68h8.2v1.7L164.5,69.8L164.5,69.8z"/>
		<path class="st0" d="M181.9,62.1c0-4.6,3.1-8,7.7-8c4.6,0,7.7,3.4,7.7,8s-3.1,8-7.7,8S181.9,66.6,181.9,62.1z M195.3,62.1
			c0-3.6-2.2-6.3-5.7-6.3s-5.7,2.7-5.7,6.3s2.2,6.3,5.7,6.3C193,68.3,195.3,65.7,195.3,62.1z"/>
		<path class="st0" d="M199.7,69.8V54.3h10.1V56h-8.2v5h8v1.7h-8v7L199.7,69.8L199.7,69.8z"/>
		<path class="st0" d="M228.2,69.8l-9-12.3v12.3h-1.9V54.3h2l8.9,12.1V54.3h1.9v15.5H228.2z"/>
		<path class="st0" d="M233.1,63.8v-9.5h1.9v9.4c0,2.8,1.5,4.6,4.4,4.6s4.4-1.8,4.4-4.6v-9.4h1.9v9.4c0,3.8-2.1,6.3-6.3,6.3
			C235.2,70.1,233.1,67.6,233.1,63.8z"/>
		<path class="st0" d="M257.7,69.8l-3.9-6.1h-3.1v6.1h-1.9V54.3h6.2c2.8,0,4.9,1.8,4.9,4.7c0,2.8-1.9,4.3-4,4.5l4.2,6.3
			C260.1,69.8,257.7,69.8,257.7,69.8z M257.9,59c0-1.8-1.3-2.9-3.1-2.9h-4.1V62h4.1C256.6,61.9,257.9,60.7,257.9,59z"/>
		<path class="st0" d="M261.4,67.6l1.2-1.5c1,1.2,2.7,2.2,4.8,2.2c2.8,0,3.6-1.5,3.6-2.7c0-4-9.2-1.8-9.2-7.3c0-2.5,2.3-4.3,5.3-4.3
			c2.3,0,4.2,0.8,5.5,2.2l-1.2,1.4c-1.2-1.3-2.8-1.9-4.5-1.9c-1.8,0-3.2,1-3.2,2.5c0,3.5,9.2,1.5,9.2,7.3c0,2.2-1.5,4.5-5.7,4.5
			C264.6,70.1,262.6,69,261.4,67.6z"/>
		<path class="st0" d="M275.3,69.8V54.3h1.9v15.5H275.3z"/>
		<path class="st0" d="M291.2,69.8l-9-12.3v12.3h-1.9V54.3h2l8.9,12.1V54.3h1.9v15.5H291.2z"/>
		<path class="st0" d="M295.5,62.1c0-4.8,3.5-8,7.9-8c2.8,0,4.7,1.2,6,2.9l-1.5,1c-1-1.3-2.6-2.1-4.5-2.1c-3.4,0-6,2.6-6,6.3
			c0,3.7,2.6,6.3,6,6.3c1.9,0,3.4-0.9,4.2-1.7v-3.1h-5.3V62h7.2v5.4c-1.4,1.6-3.5,2.7-6.1,2.7C299,70.1,295.5,66.9,295.5,62.1z"/>
	</g>
	<g>
		<path class="st1" d="M15.6,21.1l5-5h16.2l5,5v33.4l-5,5H20.7l-5-5V21.1H15.6z M54.6,15.6L42.2,3.3H15.4L2.9,15.7v44.1l12.4,12.5
			h26.8L54.5,60V15.6H54.6z"/>
		<path class="st0" d="M1.3,60.5V14.8L14.8,1.3H43l13.3,13.3v46.1L42.8,74H14.7L1.3,60.5L1.3,60.5z M14.2,0L0,14.2v46.9l14.1,14.3
			h29.3l14.2-14.2v-47L43.5,0H14.2L14.2,0z"/>
		<path class="st0" d="M22.1,19.3h13.3l3.2,3.2v30.7l-3.1,3.1H22l-3-3V22.4L22.1,19.3L22.1,19.3z M39.9,22l-4-4H21.6l-3.9,3.9v31.7
			l3.8,3.8h14.6l3.8-3.8V22L39.9,22z"/>
	</g>
	<g>
		<polygon class="st0" points="76.6,40.7 76.6,42 525.7,42 525.7,40.7 		"/>
		<g>
			<path class="st0" d="M94.4,9.7L94,6.8h-5.3v18.9l2.8,0.4v1.8H81.4v-1.8l2.8-0.4V6.8h-5.3l-0.4,2.9h-1.9V4.4h19.7v5.4L94.4,9.7
				L94.4,9.7z"/>
			<path class="st0" d="M109.1,27.9v-1.7l2.6-0.4v-6.4h-7v6.4l2.6,0.4v1.7h-9.6v-1.7l2.7-0.4V11.6l-2.7-0.4V9.5h9.6v1.7l-2.6,0.4
				v5.5h7v-5.5l-2.6-0.4V9.5h9.6v1.7l-2.7,0.4v14.2l2.7,0.4v1.7C118.7,27.9,109.1,27.9,109.1,27.9z"/>
			<path class="st0" d="M136.6,27.9h-15.9v-1.7l2.7-0.4V11.6l-2.7-0.4V9.5h15.9v4.9h-1.8l-0.4-2.6h-6.7v5.5h4.2l0.4-2.4h1.6v6.8
				h-1.6l-0.4-2.4h-4.2v6.4h6.7l0.4-2.6h1.8V27.9z"/>
			<path class="st0" d="M159,28.3c-7.3,0-10.5-4.4-10.5-12.3S151.7,3.9,159,3.9s10.5,4.4,10.5,12.3S166.3,28.3,159,28.3z M159,6.5
				c-3.9,0-5.9,3.1-5.9,9.6s1.9,9.7,5.8,9.7c3.9,0,5.9-3.1,5.9-9.6S162.9,6.5,159,6.5z"/>
			<path class="st0" d="M182.8,27.9v-1.7l2.6-0.4v-6.4h-7v6.4l2.6,0.4v1.7h-9.6v-1.7l2.7-0.4V11.6l-2.7-0.4V9.5h9.6v1.7l-2.6,0.4
				v5.5h7v-5.5l-2.6-0.4V9.5h9.6v1.7l-2.7,0.4v14.2l2.7,0.4v1.7C192.4,27.9,182.8,27.9,182.8,27.9z"/>
			<path class="st0" d="M194.6,27.9v-1.7l2.7-0.4V11.6l-2.7-0.4V9.5h9.7v1.7l-2.7,0.4v14.2l2.7,0.4v1.7H194.6z"/>
			<path class="st0" d="M214.7,28.2c-6.2,0-8.9-3.5-8.9-9.6s2.7-9.5,9-9.5c6.2,0,8.9,3.5,8.9,9.6S220.9,28.2,214.7,28.2z
				 M214.7,11.6c-3,0-4.5,2.1-4.5,7.1s1.5,7.2,4.5,7.2s4.6-2.1,4.6-7.1C219.2,13.7,217.7,11.6,214.7,11.6z"/>
			<path class="st0" d="M242.9,28.3c-4.1,0-7.3-1.4-7.3-1.4v-5h2l0.5,3.2c0,0,1.5,0.5,4.2,0.5s5.2-0.9,5.2-3.9
				c0-2.7-1.9-3.1-4.2-3.9c-3.7-1.2-7.6-2.3-7.6-7.3c0-4.1,2.6-6.6,7.9-6.6c2.5,0,5,0.6,7,1.3v4.7h-2l-0.5-3c0,0-2.1-0.5-4.1-0.5
				s-4.1,0.7-4.1,3.4c0,5.9,11.8,2,11.8,11.4C251.6,25.7,248.7,28.3,242.9,28.3z"/>
			<path class="st0" d="M268.2,14.6l-0.4-2.8h-4.1v14.1l2.7,0.4V28h-9.7v-1.7l2.7-0.4V11.7h-4.1l-0.4,2.8h-1.8V9.4h16.8v5.1h-1.7
				V14.6z"/>
			<path class="st0" d="M281.3,27.9v-1.7l2.6-0.4l-1.3-3.3h-7l-1.3,3.3l2.6,0.4v1.7h-8v-1.7l2.6-0.4l6.3-16.3h4l6.3,16.3l2.6,0.4
				v1.7H281.3z M279.1,13l-2.7,7.3h5.3L279.1,13z"/>
			<path class="st0" d="M304.7,14.6l-0.4-2.8h-4.1v14.1l2.7,0.4V28h-9.7v-1.7l2.7-0.4V11.7h-4.1l-0.4,2.8h-1.7V9.4h16.8v5.1h-1.8
				V14.6z"/>
			<path class="st0" d="M324,27.9h-15.9v-1.7l2.7-0.4V11.6l-2.7-0.4V9.5H324v4.9h-1.8l-0.4-2.6h-6.7v5.5h4.2l0.4-2.4h1.6v6.8h-1.6
				l-0.4-2.4h-4.2v6.4h6.7l0.4-2.6h1.8V27.9z"/>
			<path class="st0" d="M356.1,6.6v12c0,4-0.2,5.8-2.1,7.7c-1.4,1.4-3.6,2-7,2c-3.3,0-5.8-0.9-7.3-2.5c-2-2-1.8-5-1.8-7.6V6.6
				l-2.8-0.4V4.4h10.1v1.8l-2.8,0.4v13.8c0,3.9,2.1,5.4,5.4,5.4c1.8,0,3.2-0.4,4.1-1.4c0.8-0.9,1.3-2.2,1.3-4V6.6l-2.8-0.4V4.4h8.6
				v1.8L356.1,6.6z"/>
			<path class="st0" d="M378.3,11.6v16.3H375l-9.4-13.2v11.1l2.7,0.4v1.7H360v-1.7l2.7-0.4V11.6l-2.7-0.4V9.5h6.4l9,12.6V11.6
				l-2.7-0.4V9.5h8.3v1.7L378.3,11.6z"/>
			<path class="st0" d="M383.2,27.9v-1.7l2.7-0.4V11.6l-2.7-0.4V9.5h9.7v1.7l-2.7,0.4v14.2l2.7,0.4v1.7H383.2z"/>
			<path class="st0" d="M413.5,11.6l-6.1,16.3h-4.1l-6.1-16.3l-2.6-0.4V9.5h9.6v1.7l-2.6,0.4l4.7,12.6l4.6-12.6l-2.6-0.4V9.5h8v1.7
				L413.5,11.6z"/>
			<path class="st0" d="M433.4,27.9h-15.9v-1.7l2.7-0.4V11.6l-2.7-0.4V9.5h15.9v4.9h-1.7l-0.4-2.6h-6.7v5.5h4.2l0.4-2.4h1.6v6.8
				h-1.6l-0.4-2.4h-4.2v6.4h6.7l0.4-2.6h1.8L433.4,27.9L433.4,27.9z"/>
			<path class="st0" d="M449.6,27.9l-1.7-4.2c-1.2-2.8-1.9-4.1-4.3-4.1h-0.3v6.2l2.6,0.4v1.7h-9.6v-1.7l2.7-0.4V11.6l-2.7-0.4V9.5
				h9.3c1.9,0,4.1,0.1,5.6,1.4c0.9,0.9,1.5,2.1,1.5,3.4c0,2.1-1.4,4.1-3.3,4.7c1.5,1.2,2.9,5,3.7,6.8l2.6,0.4v1.7
				C455.7,27.9,449.6,27.9,449.6,27.9z M447.6,12.3c-0.7-0.7-2.2-0.7-3.2-0.7h-1.2v5.9h0.7c1.2,0,2.8,0.1,3.7-0.8
				c0.6-0.6,0.7-1.4,0.7-2.2C448.4,13.7,448.2,12.9,447.6,12.3z"/>
			<path class="st0" d="M463.9,28.2c-3.4,0-6.3-1.2-6.3-1.2v-4.8h1.9l0.5,3c0,0,1.3,0.4,3.4,0.4c2.2,0,4-0.7,4-2.7
				c0-1.4-0.8-1.9-1.9-2.3c-3.4-1.2-7.8-1.7-7.8-6.3c0-3.3,2.3-5.3,6.8-5.3c2.1,0,4.2,0.4,6.1,1.1v4.6h-1.9l-0.5-2.9
				c0,0-1.5-0.4-3.3-0.4c-1.7,0-3.2,0.6-3.2,2.4c0,4.1,9.7,1.4,9.7,8.7C471.4,26.2,468.8,28.2,463.9,28.2z"/>
			<path class="st0" d="M473.8,27.9v-1.7l2.7-0.4V11.6l-2.7-0.4V9.5h9.7v1.7l-2.7,0.4v14.2l2.7,0.4v1.7H473.8z"/>
			<path class="st0" d="M500.5,14.6l-0.4-2.8H496v14.1l2.7,0.4V28H489v-1.7l2.7-0.4V11.7h-4l-0.4,2.8h-1.8V9.4h16.8v5.1h-1.8V14.6z"
				/>
			<path class="st0" d="M521.7,11.6l-5.4,8.3v5.9l2.7,0.4v1.7h-9.7v-1.7l2.7-0.4v-5.9l-5.4-8.3l-2.6-0.4V9.5h9.8v1.7l-2.6,0.4l3.8,6
				l3.8-6l-2.5-0.4V9.5h8.1v1.7L521.7,11.6z"/>
		</g>
	</g>
</g>
</svg>
